<mxfile host="app.diagrams.net" agent="Mozilla/5.0 (Windows NT 10.0; Win64; x64) AppleWebKit/537.36 (KHTML, like Gecko) Chrome/133.0.0.0 Safari/537.36" version="26.0.16">
  <diagram id="6I0OCvxSQrVGMHxT2VVA" name="Page-1">
    <mxGraphModel dx="1354" dy="558" grid="1" gridSize="10" guides="1" tooltips="1" connect="1" arrows="1" fold="1" page="1" pageScale="1" pageWidth="850" pageHeight="1100" math="0" shadow="0">
      <root>
        <mxCell id="0" />
        <mxCell id="1" parent="0" />
        <mxCell id="dKdSaXE48SgPbhcamS2K-30" value="" style="whiteSpace=wrap;html=1;strokeColor=none;strokeWidth=1;fillColor=#f5f5f5;fontSize=14;" parent="1" vertex="1">
          <mxGeometry x="194" y="666" width="1075" height="300" as="geometry" />
        </mxCell>
        <mxCell id="dKdSaXE48SgPbhcamS2K-33" value="Node" style="html=1;whiteSpace=wrap;fillColor=#AFFFAF;shape=mxgraph.archimate3.application;appType=node;archiType=square;fontSize=14;verticalAlign=top;" parent="1" vertex="1">
          <mxGeometry x="390" y="815" width="480" height="145" as="geometry" />
        </mxCell>
        <mxCell id="dKdSaXE48SgPbhcamS2K-34" style="edgeStyle=elbowEdgeStyle;rounded=1;elbow=vertical;html=1;startSize=10;endArrow=block;endFill=0;endSize=10;jettySize=auto;orthogonalLoop=1;strokeColor=#808080;fontSize=14;dashed=1;" parent="1" source="dKdSaXE48SgPbhcamS2K-35" edge="1">
          <mxGeometry relative="1" as="geometry">
            <mxPoint x="514" y="730" as="targetPoint" />
          </mxGeometry>
        </mxCell>
        <mxCell id="dKdSaXE48SgPbhcamS2K-35" value="&lt;div&gt;&lt;br&gt;&lt;/div&gt;System&lt;div&gt;Software&lt;/div&gt;" style="html=1;whiteSpace=wrap;fillColor=#AFFFAF;shape=mxgraph.archimate3.tech;techType=sysSw;fontSize=14;" parent="1" vertex="1">
          <mxGeometry x="444" y="860" width="140" height="60" as="geometry" />
        </mxCell>
        <mxCell id="dKdSaXE48SgPbhcamS2K-36" style="edgeStyle=elbowEdgeStyle;rounded=1;elbow=vertical;html=1;startSize=10;endArrow=block;endFill=0;endSize=10;jettySize=auto;orthogonalLoop=1;strokeColor=#808080;fontSize=14;dashed=1;" parent="1" source="dKdSaXE48SgPbhcamS2K-37" edge="1">
          <mxGeometry relative="1" as="geometry">
            <mxPoint x="754" y="730" as="targetPoint" />
          </mxGeometry>
        </mxCell>
        <mxCell id="dKdSaXE48SgPbhcamS2K-37" value="&lt;div&gt;&lt;br&gt;&lt;/div&gt;&lt;div&gt;&lt;span&gt;System&lt;/span&gt;&lt;div&gt;Software&lt;/div&gt;&lt;/div&gt;" style="html=1;whiteSpace=wrap;fillColor=#AFFFAF;shape=mxgraph.archimate3.tech;techType=sysSw;fontSize=14;" parent="1" vertex="1">
          <mxGeometry x="684" y="860" width="140" height="60" as="geometry" />
        </mxCell>
        <mxCell id="dKdSaXE48SgPbhcamS2K-54" value="Conhecimento prévio" style="html=1;whiteSpace=wrap;fillColor=#0050ef;shape=mxgraph.archimate3.application;appType=func;archiType=rounded;fontSize=14;strokeColor=#001DBC;fontColor=#ffffff;" parent="1" vertex="1">
          <mxGeometry x="346.5" y="360" width="150" height="75" as="geometry" />
        </mxCell>
        <mxCell id="dKdSaXE48SgPbhcamS2K-55" value="Definição dos Objetivos de Aprendizagem" style="html=1;whiteSpace=wrap;fillColor=#0050ef;shape=mxgraph.archimate3.application;appType=collab;archiType=square;fontSize=14;fontColor=#ffffff;strokeColor=#001DBC;" parent="1" vertex="1">
          <mxGeometry x="554.5" y="360" width="150" height="75" as="geometry" />
        </mxCell>
        <mxCell id="dKdSaXE48SgPbhcamS2K-56" value="&amp;nbsp;Conteúdo" style="html=1;whiteSpace=wrap;fillColor=#0050ef;shape=mxgraph.archimate3.application;appType=event;archiType=rounded;fontSize=14;fontColor=#ffffff;strokeColor=#001DBC;" parent="1" vertex="1">
          <mxGeometry x="779" y="360" width="150" height="75" as="geometry" />
        </mxCell>
        <mxCell id="dKdSaXE48SgPbhcamS2K-57" value="&amp;nbsp;Metodologia&amp;nbsp;" style="html=1;whiteSpace=wrap;fillColor=#0050ef;shape=mxgraph.archimate3.application;appType=proc;archiType=rounded;fontSize=14;fontColor=#ffffff;strokeColor=#001DBC;" parent="1" vertex="1">
          <mxGeometry x="970" y="360" width="150" height="75" as="geometry" />
        </mxCell>
        <mxCell id="dKdSaXE48SgPbhcamS2K-63" value="Title" style="text;strokeColor=none;fillColor=none;html=1;fontSize=24;fontStyle=1;verticalAlign=middle;align=center;" parent="1" vertex="1">
          <mxGeometry x="50" y="70" width="1590" height="40" as="geometry" />
        </mxCell>
        <mxCell id="iZekRTKu3hpxEuUN5g3S-9" value="Avaliação" style="html=1;whiteSpace=wrap;fillColor=#0050ef;shape=mxgraph.archimate3.application;appType=proc;archiType=rounded;fontSize=14;fontColor=#ffffff;strokeColor=#001DBC;" vertex="1" parent="1">
          <mxGeometry x="1160" y="360" width="150" height="75" as="geometry" />
        </mxCell>
        <mxCell id="iZekRTKu3hpxEuUN5g3S-15" value="Feedback" style="html=1;whiteSpace=wrap;fillColor=#0050ef;shape=mxgraph.archimate3.application;appType=proc;archiType=rounded;fontSize=14;fontColor=#ffffff;strokeColor=#001DBC;" vertex="1" parent="1">
          <mxGeometry x="1330" y="360" width="150" height="75" as="geometry" />
        </mxCell>
        <mxCell id="iZekRTKu3hpxEuUN5g3S-20" value="&lt;span style=&quot;font-size: 14px;&quot;&gt;de Aprendizagem&lt;/span&gt;" style="rounded=0;whiteSpace=wrap;html=1;" vertex="1" parent="1">
          <mxGeometry x="547.5" y="560" width="150" height="70" as="geometry" />
        </mxCell>
        <mxCell id="iZekRTKu3hpxEuUN5g3S-24" value="&lt;span style=&quot;font-size: 14px;&quot;&gt;Atitudinais&lt;/span&gt;" style="rounded=0;whiteSpace=wrap;html=1;" vertex="1" parent="1">
          <mxGeometry x="780" y="647" width="150" height="70" as="geometry" />
        </mxCell>
        <mxCell id="iZekRTKu3hpxEuUN5g3S-25" value="&lt;span style=&quot;font-size: 14px;&quot;&gt;Procedimentais&amp;nbsp;&lt;/span&gt;" style="rounded=0;whiteSpace=wrap;html=1;" vertex="1" parent="1">
          <mxGeometry x="779" y="560" width="150" height="70" as="geometry" />
        </mxCell>
        <mxCell id="iZekRTKu3hpxEuUN5g3S-26" value="&lt;span style=&quot;font-size: 14px;&quot;&gt;Conceituais&amp;nbsp;&lt;/span&gt;" style="rounded=0;whiteSpace=wrap;html=1;" vertex="1" parent="1">
          <mxGeometry x="779" y="471.75" width="150" height="70" as="geometry" />
        </mxCell>
        <mxCell id="iZekRTKu3hpxEuUN5g3S-27" value="&lt;span style=&quot;font-size: 14px;&quot;&gt;Computação Despluggada&lt;/span&gt;" style="rounded=0;whiteSpace=wrap;html=1;" vertex="1" parent="1">
          <mxGeometry x="970" y="648.75" width="150" height="70" as="geometry" />
        </mxCell>
        <mxCell id="iZekRTKu3hpxEuUN5g3S-28" value="&lt;span style=&quot;font-size: 14px;&quot;&gt;Computação Plugada&lt;/span&gt;" style="rounded=0;whiteSpace=wrap;html=1;" vertex="1" parent="1">
          <mxGeometry x="969" y="561.75" width="150" height="70" as="geometry" />
        </mxCell>
        <mxCell id="iZekRTKu3hpxEuUN5g3S-29" value="&lt;span style=&quot;font-size: 14px;&quot;&gt;Métodologia Ativa&lt;/span&gt;" style="rounded=0;whiteSpace=wrap;html=1;" vertex="1" parent="1">
          <mxGeometry x="969" y="473.5" width="150" height="70" as="geometry" />
        </mxCell>
        <mxCell id="iZekRTKu3hpxEuUN5g3S-30" value="&lt;span style=&quot;font-size: 14px;&quot;&gt;de Aprendizagem&lt;/span&gt;" style="rounded=0;whiteSpace=wrap;html=1;" vertex="1" parent="1">
          <mxGeometry x="1160" y="473.5" width="150" height="70" as="geometry" />
        </mxCell>
        <mxCell id="iZekRTKu3hpxEuUN5g3S-32" value="&lt;span style=&quot;font-size: 14px;&quot;&gt;Gerais&lt;/span&gt;&lt;span style=&quot;color: rgba(0, 0, 0, 0); font-family: monospace; font-size: 0px; text-align: start; text-wrap-mode: nowrap;&quot;&gt;%3CmxGraphModel%3E%3Croot%3E%3CmxCell%20id%3D%220%22%2F%3E%3CmxCell%20id%3D%221%22%20parent%3D%220%22%2F%3E%3CmxCell%20id%3D%222%22%20value%3D%22%26lt%3Bspan%20style%3D%26quot%3Bfont-size%3A%2014px%3B%26quot%3B%26gt%3BM%C3%A9todologia%20Ativa%26lt%3B%2Fspan%26gt%3B%22%20style%3D%22rounded%3D0%3BwhiteSpace%3Dwrap%3Bhtml%3D1%3B%22%20vertex%3D%221%22%20parent%3D%221%22%3E%3CmxGeometry%20x%3D%22969%22%20y%3D%22473.5%22%20width%3D%22150%22%20height%3D%2270%22%20as%3D%22geometry%22%2F%3E%3C%2FmxCell%3E%3C%2Froot%3E%3C%2FmxGraphModel%3E&lt;/span&gt;" style="rounded=0;whiteSpace=wrap;html=1;" vertex="1" parent="1">
          <mxGeometry x="547.5" y="473.5" width="150" height="70" as="geometry" />
        </mxCell>
        <mxCell id="iZekRTKu3hpxEuUN5g3S-33" value="&lt;span style=&quot;font-size: 14px;&quot;&gt;Diagnóstico&lt;/span&gt;" style="rounded=0;whiteSpace=wrap;html=1;" vertex="1" parent="1">
          <mxGeometry x="346.5" y="471.75" width="150" height="70" as="geometry" />
        </mxCell>
        <mxCell id="iZekRTKu3hpxEuUN5g3S-34" value="&lt;span style=&quot;font-size: 14px;&quot;&gt;Revisão&lt;/span&gt;" style="rounded=0;whiteSpace=wrap;html=1;" vertex="1" parent="1">
          <mxGeometry x="1330" y="471.75" width="150" height="70" as="geometry" />
        </mxCell>
        <mxCell id="iZekRTKu3hpxEuUN5g3S-35" value="&lt;span style=&quot;font-size: 14px;&quot;&gt;Ajuste&lt;/span&gt;" style="rounded=0;whiteSpace=wrap;html=1;" vertex="1" parent="1">
          <mxGeometry x="1330" y="570" width="150" height="70" as="geometry" />
        </mxCell>
      </root>
    </mxGraphModel>
  </diagram>
</mxfile>
